# xmcd CD database file generated by LOLA_Freedb v0.9beta0
# 
# Track frame offsets:
#      150
#      22579
#      37575
#      52059
#      65683
#      85717
#      105161
#      122827
#      143681
# 
# Disc length: 2308 seconds
# 
# Revision: 3 
# Processed by: cddbd v1.5.2PL0 Copyright (c) Steve Scherf et al.
# Submitted via: LOLA_Freedb v0.9beta0
# 
DISCID=63090209
DTITLE=Al Stewart - Year of the Cat
DYEAR=1900
DGENRE=
TTITLE0=Al Stewart - Lord Grenville
TTITLE1=Al Stewart - On the Border
TTITLE2=Al Stewart - Mida's Shadow
TTITLE3=Al Stewart - Sand in your Shoes
TTITLE4=Al Stewart - If it doesn't comes naturally, leave it
TTITLE5=Al Stewart - Flying Sorcery
TTITLE6=Al Stewart - Broadway Hotel
TTITLE7=Al Stewart - One Stage before
TTITLE8=Al Stewart - Year of the Cat
EXTD=
EXTT0=
EXTT1=
EXTT2=
EXTT3=
EXTT4=
EXTT5=
EXTT6=
EXTT7=
EXTT8=
PLAYORDER=
